<?xml version="1.0" encoding="UTF-8" standalone="no"?><svg xmlns="http://www.w3.org/2000/svg" xmlns:xlink="http://www.w3.org/1999/xlink" contentScriptType="application/ecmascript" contentStyleType="text/css" height="279px" preserveAspectRatio="none" style="width:245px;height:279px;background:#FFFFFF;" version="1.1" viewBox="0 0 245 279" width="245px" zoomAndPan="magnify"><defs><filter height="300%" id="f1usi9l545zyh0" width="300%" x="-1" y="-1"><feGaussianBlur result="blurOut" stdDeviation="2.0"/><feColorMatrix in="blurOut" result="blurOut2" type="matrix" values="0 0 0 0 0 0 0 0 0 0 0 0 0 0 0 0 0 0 .4 0"/><feOffset dx="4.0" dy="4.0" in="blurOut2" result="blurOut3"/><feBlend in="SourceGraphic" in2="blurOut3" mode="normal"/></filter></defs><g><!--MD5=[e890b1f4ca2cd8b4044c04dfe9603e88]
class JpaCustomer--><rect codeLine="4" fill="#FEFECE" filter="url(#f1usi9l545zyh0)" height="137.6328" id="JpaCustomer" style="stroke:#A80036;stroke-width:1.5;" width="224" x="7" y="7"/><ellipse cx="75.25" cy="23" fill="#ADD1B2" rx="11" ry="11" style="stroke:#A80036;stroke-width:1.0;"/><path d="M78.2188,28.6406 Q77.6406,28.9375 77,29.0781 Q76.3594,29.2344 75.6563,29.2344 Q73.1563,29.2344 71.8281,27.5938 Q70.5156,25.9375 70.5156,22.8125 Q70.5156,19.6875 71.8281,18.0313 Q73.1563,16.375 75.6563,16.375 Q76.3594,16.375 77,16.5313 Q77.6563,16.6875 78.2188,16.9844 L78.2188,19.7031 Q77.5938,19.125 77,18.8594 Q76.4063,18.5781 75.7813,18.5781 Q74.4375,18.5781 73.75,19.6563 Q73.0625,20.7188 73.0625,22.8125 Q73.0625,24.9063 73.75,25.9844 Q74.4375,27.0469 75.7813,27.0469 Q76.4063,27.0469 77,26.7813 Q77.5938,26.5 78.2188,25.9219 L78.2188,28.6406 Z " fill="#000000"/><text fill="#000000" font-family="sans-serif" font-size="12" lengthAdjust="spacing" textLength="79" x="95.75" y="27.1543">JpaCustomer</text><line style="stroke:#A80036;stroke-width:1.5;" x1="8" x2="230" y1="39" y2="39"/><text fill="#000000" font-family="sans-serif" font-size="11" lengthAdjust="spacing" textLength="44" x="13" y="53.2104">UUID pk</text><text fill="#000000" font-family="sans-serif" font-size="11" lengthAdjust="spacing" textLength="94" x="13" y="66.0151">String firstName</text><text fill="#000000" font-family="sans-serif" font-size="11" lengthAdjust="spacing" textLength="92" x="13" y="78.8198">String lastName</text><line style="stroke:#A80036;stroke-width:1.5;" x1="8" x2="230" y1="85.4141" y2="85.4141"/><ellipse cx="18" cy="96.4141" fill="#84BE84" rx="3" ry="3" style="stroke:#038048;stroke-width:1.0;"/><text fill="#000000" font-family="sans-serif" font-size="11" lengthAdjust="spacing" textLength="198" x="27" y="99.6245">JpaCustomer from(CustomerState,</text><text fill="#000000" font-family="sans-serif" font-size="11" lengthAdjust="spacing" textLength="105" x="27" y="112.4292">CustomerId, UUID)</text><ellipse cx="18" cy="122.0234" fill="#84BE84" rx="3" ry="3" style="stroke:#038048;stroke-width:1.0;"/><text fill="#000000" font-family="sans-serif" font-size="11" lengthAdjust="spacing" textLength="189" x="27" y="125.2339">JpaCustomer set(CustomerState,</text><text fill="#000000" font-family="sans-serif" font-size="11" lengthAdjust="spacing" textLength="70" x="27" y="138.0386">CustomerId)</text><!--MD5=[052b4b5cf7aa81bb3f0d5ba6d67d7b48]
class CustomerId--><rect codeLine="15" fill="#FEFECE" filter="url(#f1usi9l545zyh0)" height="60.8047" id="CustomerId" style="stroke:#A80036;stroke-width:1.5;" width="103" x="67.5" y="205"/><ellipse cx="82.5" cy="221" fill="#ADD1B2" rx="11" ry="11" style="stroke:#A80036;stroke-width:1.0;"/><path d="M85.4688,226.6406 Q84.8906,226.9375 84.25,227.0781 Q83.6094,227.2344 82.9063,227.2344 Q80.4063,227.2344 79.0781,225.5938 Q77.7656,223.9375 77.7656,220.8125 Q77.7656,217.6875 79.0781,216.0313 Q80.4063,214.375 82.9063,214.375 Q83.6094,214.375 84.25,214.5313 Q84.9063,214.6875 85.4688,214.9844 L85.4688,217.7031 Q84.8438,217.125 84.25,216.8594 Q83.6563,216.5781 83.0313,216.5781 Q81.6875,216.5781 81,217.6563 Q80.3125,218.7188 80.3125,220.8125 Q80.3125,222.9063 81,223.9844 Q81.6875,225.0469 83.0313,225.0469 Q83.6563,225.0469 84.25,224.7813 Q84.8438,224.5 85.4688,223.9219 L85.4688,226.6406 Z " fill="#000000"/><text fill="#000000" font-family="sans-serif" font-size="12" lengthAdjust="spacing" textLength="71" x="96.5" y="225.1543">CustomerId</text><line style="stroke:#A80036;stroke-width:1.5;" x1="68.5" x2="169.5" y1="237" y2="237"/><text fill="#000000" font-family="sans-serif" font-size="11" lengthAdjust="spacing" textLength="41" x="73.5" y="251.2104">UUID id</text><line style="stroke:#A80036;stroke-width:1.5;" x1="68.5" x2="169.5" y1="257.8047" y2="257.8047"/><!--MD5=[8b921d17f935df0170e7ea8654d1ad82]
link JpaCustomer to CustomerId--><path codeLine="13" d="M119,157.17 C119,157.17 119,181.33 119,191.65 " fill="none" id="JpaCustomer-CustomerId" style="stroke:#707070;stroke-width:1.0;"/><polygon fill="#707070" points="119,204.99,123,195.99,119,199.99,115,195.99,119,204.99" style="stroke:#707070;stroke-width:1.0;"/><line style="stroke:#707070;stroke-width:1.0;" x1="119" x2="119" y1="199.99" y2="191.99"/><polygon fill="#707070" points="119,145.17,115,151.17,119,157.17,123,151.17,119,145.17" style="stroke:#707070;stroke-width:1.0;"/><text fill="#000000" font-family="sans-serif" font-size="13" lengthAdjust="spacing" textLength="51" x="62.4219" y="193.7781">logicalId</text><!--MD5=[a510e78c4fa7f0be6e719826463014d6]
@startuml

!includeurl https://raw.githubusercontent.com/skleanthous/C4-PlantumlSkin/master/build/output/general/general.puml

class JpaCustomer {
    UUID pk
    String firstName
    String lastName

    +JpaCustomer from(CustomerState, CustomerId, UUID)
    +JpaCustomer set(CustomerState, CustomerId)
}

JpaCustomer *- -> "logicalId" CustomerId

class CustomerId {
    UUID id
}

@enduml

@startuml








skinparam {
  shadowing true
  arrowColor #707070
  defaultTextAlignment center
  wrapWidth 200
  maxMessageSize 150
}

class JpaCustomer {
    UUID pk
    String firstName
    String lastName

    +JpaCustomer from(CustomerState, CustomerId, UUID)
    +JpaCustomer set(CustomerState, CustomerId)
}

JpaCustomer *- -> "logicalId" CustomerId

class CustomerId {
    UUID id
}

@enduml

PlantUML version 1.2021.16(Wed Dec 08 17:25:22 UTC 2021)
(GPL source distribution)
Java Runtime: OpenJDK Runtime Environment
JVM: OpenJDK 64-Bit Server VM
Default Encoding: UTF-8
Language: en
Country: 
--></g></svg>