<?xml version="1.0" encoding="UTF-8" standalone="no"?><svg xmlns="http://www.w3.org/2000/svg" xmlns:xlink="http://www.w3.org/1999/xlink" contentScriptType="application/ecmascript" contentStyleType="text/css" height="387px" preserveAspectRatio="none" style="width:469px;height:387px;background:#FFFFFF;" version="1.1" viewBox="0 0 469 387" width="469px" zoomAndPan="magnify"><defs><filter height="300%" id="f1vx6drpcy3v2u" width="300%" x="-1" y="-1"><feGaussianBlur result="blurOut" stdDeviation="2.0"/><feColorMatrix in="blurOut" result="blurOut2" type="matrix" values="0 0 0 0 0 0 0 0 0 0 0 0 0 0 0 0 0 0 .4 0"/><feOffset dx="4.0" dy="4.0" in="blurOut2" result="blurOut3"/><feBlend in="SourceGraphic" in2="blurOut3" mode="normal"/></filter></defs><g><!--MD5=[2ce0c9fb7f55b1e256ab28a8ea6b25ec]
class Customer--><rect fill="#FEFECE" filter="url(#f1vx6drpcy3v2u)" height="48" id="Customer" style="stroke:#A80036;stroke-width:1.5;" width="92" x="185" y="192"/><ellipse cx="200" cy="208" fill="#ADD1B2" rx="11" ry="11" style="stroke:#A80036;stroke-width:1.0;"/><path d="M202.9688,213.6406 Q202.3906,213.9375 201.75,214.0781 Q201.1094,214.2344 200.4063,214.2344 Q197.9063,214.2344 196.5781,212.5938 Q195.2656,210.9375 195.2656,207.8125 Q195.2656,204.6875 196.5781,203.0313 Q197.9063,201.375 200.4063,201.375 Q201.1094,201.375 201.75,201.5313 Q202.4063,201.6875 202.9688,201.9844 L202.9688,204.7031 Q202.3438,204.125 201.75,203.8594 Q201.1563,203.5781 200.5313,203.5781 Q199.1875,203.5781 198.5,204.6563 Q197.8125,205.7188 197.8125,207.8125 Q197.8125,209.9063 198.5,210.9844 Q199.1875,212.0469 200.5313,212.0469 Q201.1563,212.0469 201.75,211.7813 Q202.3438,211.5 202.9688,210.9219 L202.9688,213.6406 Z " fill="#000000"/><text fill="#000000" font-family="sans-serif" font-size="12" lengthAdjust="spacing" textLength="60" x="214" y="212.1543">Customer</text><line style="stroke:#A80036;stroke-width:1.5;" x1="186" x2="276" y1="224" y2="224"/><line style="stroke:#A80036;stroke-width:1.5;" x1="186" x2="276" y1="232" y2="232"/><!--MD5=[052b4b5cf7aa81bb3f0d5ba6d67d7b48]
class CustomerId--><rect codeLine="7" fill="#FEFECE" filter="url(#f1vx6drpcy3v2u)" height="73.6094" id="CustomerId" style="stroke:#A80036;stroke-width:1.5;" width="175" x="50.5" y="300"/><ellipse cx="98.25" cy="316" fill="#ADD1B2" rx="11" ry="11" style="stroke:#A80036;stroke-width:1.0;"/><path d="M101.2188,321.6406 Q100.6406,321.9375 100,322.0781 Q99.3594,322.2344 98.6563,322.2344 Q96.1563,322.2344 94.8281,320.5938 Q93.5156,318.9375 93.5156,315.8125 Q93.5156,312.6875 94.8281,311.0313 Q96.1563,309.375 98.6563,309.375 Q99.3594,309.375 100,309.5313 Q100.6563,309.6875 101.2188,309.9844 L101.2188,312.7031 Q100.5938,312.125 100,311.8594 Q99.4063,311.5781 98.7813,311.5781 Q97.4375,311.5781 96.75,312.6563 Q96.0625,313.7188 96.0625,315.8125 Q96.0625,317.9063 96.75,318.9844 Q97.4375,320.0469 98.7813,320.0469 Q99.4063,320.0469 100,319.7813 Q100.5938,319.5 101.2188,318.9219 L101.2188,321.6406 Z " fill="#000000"/><text fill="#000000" font-family="sans-serif" font-size="12" lengthAdjust="spacing" textLength="71" x="118.75" y="320.1543">CustomerId</text><line style="stroke:#A80036;stroke-width:1.5;" x1="51.5" x2="224.5" y1="332" y2="332"/><text fill="#000000" font-family="sans-serif" font-size="11" lengthAdjust="spacing" textLength="41" x="56.5" y="346.2104">UUID id</text><line style="stroke:#A80036;stroke-width:1.5;" x1="51.5" x2="224.5" y1="352.8047" y2="352.8047"/><ellipse cx="61.5" cy="363.8047" fill="#84BE84" rx="3" ry="3" style="stroke:#038048;stroke-width:1.0;"/><text fill="#000000" font-family="sans-serif" font-size="11" lengthAdjust="spacing" textLength="149" x="70.5" y="367.0151">parse(String): CustomerId</text><!--MD5=[6476c1cd18361670bc1c0ddef7ea6443]
class CustomerState--><rect codeLine="12" fill="#FEFECE" filter="url(#f1vx6drpcy3v2u)" height="73.6094" id="CustomerState" style="stroke:#A80036;stroke-width:1.5;" width="126" x="261" y="300"/><ellipse cx="276" cy="316" fill="#ADD1B2" rx="11" ry="11" style="stroke:#A80036;stroke-width:1.0;"/><path d="M278.9688,321.6406 Q278.3906,321.9375 277.75,322.0781 Q277.1094,322.2344 276.4063,322.2344 Q273.9063,322.2344 272.5781,320.5938 Q271.2656,318.9375 271.2656,315.8125 Q271.2656,312.6875 272.5781,311.0313 Q273.9063,309.375 276.4063,309.375 Q277.1094,309.375 277.75,309.5313 Q278.4063,309.6875 278.9688,309.9844 L278.9688,312.7031 Q278.3438,312.125 277.75,311.8594 Q277.1563,311.5781 276.5313,311.5781 Q275.1875,311.5781 274.5,312.6563 Q273.8125,313.7188 273.8125,315.8125 Q273.8125,317.9063 274.5,318.9844 Q275.1875,320.0469 276.5313,320.0469 Q277.1563,320.0469 277.75,319.7813 Q278.3438,319.5 278.9688,318.9219 L278.9688,321.6406 Z " fill="#000000"/><text fill="#000000" font-family="sans-serif" font-size="12" lengthAdjust="spacing" textLength="94" x="290" y="320.1543">CustomerState</text><line style="stroke:#A80036;stroke-width:1.5;" x1="262" x2="386" y1="332" y2="332"/><text fill="#000000" font-family="sans-serif" font-size="11" lengthAdjust="spacing" textLength="94" x="267" y="346.2104">String firstName</text><text fill="#000000" font-family="sans-serif" font-size="11" lengthAdjust="spacing" textLength="92" x="267" y="359.0151">String lastName</text><line style="stroke:#A80036;stroke-width:1.5;" x1="262" x2="386" y1="365.6094" y2="365.6094"/><!--MD5=[e69d6994dde37a3d0167e5476c791457]
class CustomerRepository--><rect codeLine="17" fill="#FEFECE" filter="url(#f1vx6drpcy3v2u)" height="124.8281" id="CustomerRepository" style="stroke:#A80036;stroke-width:1.5;" width="448" x="7" y="7"/><ellipse cx="164.25" cy="23" fill="#B4A7E5" rx="11" ry="11" style="stroke:#A80036;stroke-width:1.0;"/><path d="M160.1719,18.7656 L160.1719,16.6094 L167.5625,16.6094 L167.5625,18.7656 L165.0938,18.7656 L165.0938,26.8438 L167.5625,26.8438 L167.5625,29 L160.1719,29 L160.1719,26.8438 L162.6406,26.8438 L162.6406,18.7656 L160.1719,18.7656 Z " fill="#000000"/><text fill="#000000" font-family="sans-serif" font-size="12" font-style="italic" lengthAdjust="spacing" textLength="125" x="184.75" y="27.1543">CustomerRepository</text><line style="stroke:#A80036;stroke-width:1.5;" x1="8" x2="454" y1="39" y2="39"/><line style="stroke:#A80036;stroke-width:1.5;" x1="8" x2="454" y1="47" y2="47"/><ellipse cx="18" cy="58" fill="#84BE84" rx="3" ry="3" style="stroke:#038048;stroke-width:1.0;"/><text fill="#000000" font-family="sans-serif" font-size="11" lengthAdjust="spacing" textLength="244" x="27" y="61.2104">Optional&lt;Customer&gt; findById(CustomerId)</text><ellipse cx="18" cy="70.8047" fill="#84BE84" rx="3" ry="3" style="stroke:#038048;stroke-width:1.0;"/><text fill="#000000" font-family="sans-serif" font-size="11" lengthAdjust="spacing" textLength="422" x="27" y="74.0151">Optional&lt;Customer&gt; findByFirstNameAndLastName(firstName, lastName)</text><ellipse cx="18" cy="83.6094" fill="#84BE84" rx="3" ry="3" style="stroke:#038048;stroke-width:1.0;"/><text fill="#000000" font-family="sans-serif" font-size="11" lengthAdjust="spacing" textLength="286" x="27" y="86.8198">List&lt;Customer&gt; findByCriteria(List&lt;FindCriteria&gt;)</text><ellipse cx="18" cy="96.4141" fill="#84BE84" rx="3" ry="3" style="stroke:#038048;stroke-width:1.0;"/><text fill="#000000" font-family="sans-serif" font-size="11" lengthAdjust="spacing" textLength="216" x="27" y="99.6245">void add(CustomerId, CustomerState)</text><ellipse cx="18" cy="109.2188" fill="#84BE84" rx="3" ry="3" style="stroke:#038048;stroke-width:1.0;"/><text fill="#000000" font-family="sans-serif" font-size="11" lengthAdjust="spacing" textLength="234" x="27" y="112.4292">void update(CustomerId, CustomerState)</text><ellipse cx="18" cy="122.0234" fill="#84BE84" rx="3" ry="3" style="stroke:#038048;stroke-width:1.0;"/><text fill="#000000" font-family="sans-serif" font-size="11" lengthAdjust="spacing" textLength="144" x="27" y="125.2339">void remove(CustomerId)</text><!--MD5=[286061980877f1b699964421b7d5abc6]
link Customer to CustomerId--><path codeLine="4" d="M205.4636,249.6873 C205.4636,249.6873 184.6,276.37 174.58,289.19 " fill="none" id="Customer-CustomerId" style="stroke:#A80036;stroke-width:1.0;"/><polygon fill="#A80036" points="166.36,299.71,175.0523,295.0792,169.4377,295.7695,168.7474,290.1549,166.36,299.71" style="stroke:#A80036;stroke-width:1.0;"/><line style="stroke:#A80036;stroke-width:1.0;" x1="169.4377" x2="174.365" y1="295.7695" y2="289.47"/><polygon fill="#A80036" points="212.85,240.23,206.0043,242.4965,205.4636,249.6873,212.3092,247.4208,212.85,240.23" style="stroke:#A80036;stroke-width:1.0;"/><text fill="#000000" font-family="sans-serif" font-size="13" lengthAdjust="spacing" textLength="8" x="162.6991" y="288.8453">1</text><!--MD5=[f372bd80b91f99e24f13f6f3e6a6c506]
link Customer to CustomerState--><path codeLine="5" d="M256.5364,249.6873 C256.5364,249.6873 277.4,276.37 287.42,289.19 " fill="none" id="Customer-CustomerState" style="stroke:#A80036;stroke-width:1.0;"/><polygon fill="#A80036" points="295.64,299.71,293.2526,290.1549,292.5623,295.7695,286.9477,295.0792,295.64,299.71" style="stroke:#A80036;stroke-width:1.0;"/><line style="stroke:#A80036;stroke-width:1.0;" x1="292.5623" x2="287.635" y1="295.7695" y2="289.47"/><polygon fill="#A80036" points="249.15,240.23,249.6908,247.4208,256.5364,249.6873,255.9957,242.4965,249.15,240.23" style="stroke:#A80036;stroke-width:1.0;"/><text fill="#000000" font-family="sans-serif" font-size="13" lengthAdjust="spacing" textLength="8" x="281.8759" y="288.8453">1</text><!--MD5=[3ae97d11c2ca570632e7e7ed3510da9a]
link CustomerRepository to Customer--><path codeLine="26" d="M231,132.2 C231,151.22 231,171.24 231,186.83 " fill="none" id="CustomerRepository-to-Customer" style="stroke:#A80036;stroke-width:1.0;"/><polygon fill="#A80036" points="231,191.94,235,182.94,231,186.94,227,182.94,231,191.94" style="stroke:#A80036;stroke-width:1.0;"/><text fill="#000000" font-family="sans-serif" font-size="13" lengthAdjust="spacing" textLength="98" x="120.4438" y="180.9367">read and writes</text><!--MD5=[f4dcdf9a5c49413ce8386cba7c89ab6e]
@startuml

!includeurl https://raw.githubusercontent.com/skleanthous/C4-PlantumlSkin/master/build/output/general/notes.puml

Customer *- -> "1" CustomerId
Customer *- -> "1" CustomerState

class CustomerId {
    UUID id
    +parse(String): CustomerId
}

class CustomerState {
    String firstName
    String lastName
}

interface CustomerRepository {
    +Optional<Customer> findById(CustomerId)
    +Optional<Customer> findByFirstNameAndLastName(firstName, lastName)
    +List<Customer> findByCriteria(List<FindCriteria>)
    +void add(CustomerId, CustomerState)
    +void update(CustomerId, CustomerState)
    +void remove(CustomerId)
}

CustomerRepository - -> "read and writes" Customer

@enduml

@startuml








skinparam note {
  BackgroundColor #F5F5F5
  BorderColor #707070
  FontColor #707070
}

Customer *- -> "1" CustomerId
Customer *- -> "1" CustomerState

class CustomerId {
    UUID id
    +parse(String): CustomerId
}

class CustomerState {
    String firstName
    String lastName
}

interface CustomerRepository {
    +Optional<Customer> findById(CustomerId)
    +Optional<Customer> findByFirstNameAndLastName(firstName, lastName)
    +List<Customer> findByCriteria(List<FindCriteria>)
    +void add(CustomerId, CustomerState)
    +void update(CustomerId, CustomerState)
    +void remove(CustomerId)
}

CustomerRepository - -> "read and writes" Customer

@enduml

PlantUML version 1.2021.16(Wed Dec 08 17:25:22 UTC 2021)
(GPL source distribution)
Java Runtime: OpenJDK Runtime Environment
JVM: OpenJDK 64-Bit Server VM
Default Encoding: UTF-8
Language: en
Country: 
--></g></svg>